<svg xmlns="http://www.w3.org/2000/svg" xml:space="preserve" width="1500" height="1500" data-id="lg_nlKJ7nS3diGXMlU4Uy" data-version="1" viewBox="0 0 1500 1500"><path fill="#151c28" stroke="transparent" d="M0 0h1500v1500H0z"/><g data-padding="20"><g transform="translate(-905.481 -904.542)scale(2.13284)"><rect width="323.96" height="154.127" x="214.2" y="327.967" fill="none" rx="0" ry="0" transform="translate(400.5 512.99)"/><path fill="#fff" d="M620.75 960.92q-1.23 0-2.19-.55-.95-.54-.95-1.36 0-1.91 3.41-2.59 4.91-1.1 6.55-3.01 1.63-1.9 1.63-6.41v-61.78q0-4.5-1.36-6.41t-6.41-3q-3.41-.69-3.41-2.73 0-.96.89-1.43.88-.48 2.25-.48 3.27 0 6.13.13 2.87.14 5.6.28 2.72.13 5.45.13t5.66-.13q2.94-.14 6.07-.28 3.14-.13 6.28-.13 3 0 3 2.04 0 1.1-.82 1.64-.82.55-2.59.96-5.32 1.36-7.16 3.41-1.84 2.04-1.84 6.13v25.37q0 .96.61 1.3t1.43.34h40.78q1.5 0 1.5-1.91v-25.23q0-3.96-1.77-6-1.77-2.05-7.09-3.41-1.78-.41-2.66-.96-.89-.54-.89-1.64 0-2.04 3-2.04 3.28 0 6.55.13 3.27.14 6.34.28 3.07.13 5.94.13 2.59 0 5.04-.13 2.46-.14 5.25-.28 2.8-.13 6.07-.13 1.23 0 2.18.48.96.47.96 1.43 0 2.04-3.55 2.73-4.77 1.09-6.2 3.13-1.43 2.05-1.43 6.28V947q0 4.51 1.5 6.41 1.5 1.91 6.41 3.01 3.41.68 3.41 2.59 0 .82-.96 1.36-.95.55-2.18.55-3.14 0-6-.21-2.87-.2-5.66-.34-2.8-.14-5.53-.14-2.72 0-5.73.14-3 .14-6.13.27-3.14.14-6.41.14-1.23 0-2.05-.48-.82-.47-.82-1.43 0-1.09.82-1.57t2.46-.88q4.91-1.23 7.02-3.28 2.11-2.04 2.11-6.14v-25.91q0-.82-.2-1.5-.21-.68-1.16-.68h-41.46q-1.5 0-1.5 2.04v25.51q0 4.09 2.38 6.41 2.39 2.32 7.3 3.55 1.77.4 2.59.88t.82 1.57q0 .96-.75 1.43-.75.48-2.25.48-3.14 0-6.41-.14-3.28-.13-6.34-.27-3.07-.14-5.94-.14-2.86 0-5.73.14-2.86.14-5.86.34-3 .21-6 .21m117.71 2.85q-3.96 0-6.89-2.93t-2.93-6.89q0-4.23 2.93-7.16t6.89-2.93q4.23 0 7.16 2.93t2.93 7.16q0 3.96-2.93 6.89t-7.16 2.93m25.5 35.34q-3.27 0-6.14-2.12-2.86-2.11-2.86-5.52 0-2.59 1.3-4.91 1.29-2.32 3.88-2.32 1.91 0 3.89.68t3.75.55q1.64-.14 2.39-.75.75-.62 1.7-2.25 1.09-1.91 2.39-4.16t2.73-5.39 3.2-7.5q1.23-2.87 1.23-5.46 0-1.63-.41-3.14-.41-1.5-.95-2.72l-16.51-38.88q-1.09-2.72-2.66-4.77-1.56-2.05-3.88-2.73-1.23-.54-1.98-1.09-.75-.54-.75-1.64 0-1.09 1.09-1.29 1.09-.21 1.91-.21 3.14 0 5.05.14t3.54.27q1.64.14 3.55.14 2.86 0 4.64-.14 1.77-.13 3.75-.27 1.97-.14 4.98-.14.95 0 2.04.35 1.09.34 1.09 1.43t-1.22 1.7q-1.23.62-2.32 1.03-1.37.4-2.19 1.56-.81 1.16-.81 3.35 0 .95.4 2.38.41 1.43.96 3.07l9.41 22.78q.14.54.55.54.13 0 .41-.54l7.77-22.23q.41-.96.75-2.53t.34-2.66q0-2.45-1.16-3.75-1.16-1.29-2.52-1.84-1.09-.54-2.32-1.16-1.23-.61-1.23-1.7t1.16-1.43q1.16-.35 1.98-.35 3 0 5.05.28 2.04.27 4.77.27 1.77 0 2.93-.14 1.16-.13 2.53-.27 1.36-.14 3.41-.14.81 0 1.97.21 1.16.2 1.16 1.29 0 1.1-.75 1.64-.75.55-1.98 1.09-2.31.68-4.5 3.07-2.18 2.39-3.54 5.53l-19.64 47.46q-.82 1.91-2.19 5.12-1.36 3.2-2.93 7.02t-3.34 7.91-3.41 8.05q-1.5 3.54-4.57 5.39-3.07 1.84-6.89 1.84m67.66-35.34q-3.96 0-6.89-2.93-2.94-2.93-2.94-6.89 0-4.23 2.94-7.16 2.93-2.93 6.89-2.93 4.22 0 7.16 2.93 2.93 2.93 2.93 7.16 0 3.96-2.93 6.89-2.94 2.93-7.16 2.93m20.59-2.99q-.95 0-1.84-.41t-.89-1.36q0-1.09.96-1.64.95-.55 2.18-.95 1.91-.69 3.68-1.57 1.78-.89 1.78-3.62v-30.55q0-3.14-.82-5.52-.82-2.39-3.82-2.8-.55-.14-.96-.61-.41-.48-.41-1.71 0-1.64 1.23-2.04 3.55-.82 6.75-1.91 3.21-1.1 6.14-2.46t5.39-2.73l.82-.54q.41-.28.82-.28 1.09 0 1.09 1.37 0 1.09-.34 3.75t-.34 4.57q0 1.36.27 1.64h.27q3.82-3.69 8.8-6.42 4.98-2.72 11.8-2.72 4.36 0 7.84 2.66t5.39 7.43h.54q4.09-4.64 9.41-7.37 5.32-2.72 11.73-2.72 4.37 0 7.64 2.52 3.28 2.52 5.19 6.89 1.9 4.36 1.9 9.95v29.74q0 2.73 1.64 3.55 1.64.81 3.68 1.5 1.23.4 2.12.95.88.55.88 1.64 0 .82-.68 1.29-.68.48-1.91.48-2.72 0-4.84-.2-2.11-.21-4.02-.35-1.91-.13-4.37-.13-2.32 0-4.16.13-1.84.14-3.75.35-1.91.2-4.64.2-1.09 0-1.77-.48-.68-.47-.68-1.29 0-1.09.82-1.64t2.04-.95q1.91-.55 3.14-1.44 1.23-.88 1.23-3.2v-28.1q0-3.41-1.09-6t-3.07-4.16-4.43-1.57q-2.32 0-4.71.75t-4.57 2.52q-2.59 2.19-2.59 7.1v29.05q0 2.73 1.43 3.61 1.43.89 3.48 1.44 1.09.4 1.98.95.88.55.88 1.64 0 .82-.75 1.29-.75.48-1.7.48-2.73 0-4.71-.2-1.97-.21-3.75-.35-1.77-.13-4.23-.13-2.32 0-4.16.13-1.84.14-3.82.35-1.97.2-4.7.2-.96 0-1.71-.48-.75-.47-.75-1.29 0-1.09.89-1.64t1.98-.95q1.91-.55 3.2-1.44 1.3-.88 1.3-3.2v-28.1q0-3.41-1.09-6t-3.07-4.16-4.43-1.57q-2.32 0-4.64.75t-4.78 2.52q-2.31 1.78-2.31 6.82v29.33q0 2.45 1.16 3.41 1.15.95 3.2 1.64 1.09.4 1.98.95t.89 1.64q0 .82-.69 1.29-.68.48-1.77.48-2.73 0-4.64-.2-1.91-.21-3.68-.35-1.77-.13-4.23-.13-2.32 0-4.3.13-1.97.14-4.09.35-2.11.2-4.84.2m116.714-167.6a64.65 64.65 0 0 1-56.634-52.021c-5.172-21.852-3.362-51.548-3.362-52.022.13-1.94-.215-22.37-2.93-31.722-12.586-43.703-78.4-68.4-155.333-53.142-14.309 2.845-28.877 5.948-43.057 9.61 1.552 14.655 2.07 42.757-13.62 61.376-13.274 15.774-41.074 20.558-44.177 21.033l-1.465.129a9.266 9.266 0 0 1-1.422-18.404c6.637-1.077 25.43-5.775 32.928-14.654 9.31-11.077 10.473-28.446 9.913-40.73-.43-8.36-.216-70.252-.216-70.252l-35.083 26.722a74.13 74.13 0 0 0-51.979-.26l-30.902-25.945v49.306a51.7 51.7 0 0 0-9.655 29.955c0 25.86 19.395 47.668 46.117 55.125-.905 8.792.087 18.533 3.448 29.394 4.526 14.783 16.896 26.937 34.222 35.988v64.823a22.865 22.865 0 0 0 45.73 0v-50.126c22.066 3.88 46.72 4.526 71.631 1.552l-38.359 30.86a22.852 22.852 0 0 0 28.662 35.6l68.53-55.168.947-.948V817.1a22.843 22.843 0 1 0 45.686 0v-59.435a112.06 112.06 0 0 0 98.742 82.062 23.274 23.274 0 0 0 23.101-21.636 23.403 23.403 0 0 0-21.463-24.912"/></g><path fill="transparent" stroke="transparent" stroke-width="2.237" d="M270.134 250h959.732v1000H270.134z"/></g></svg>